<?xml version="1.0" encoding="UTF-8" standalone="no"?>
<!DOCTYPE svg PUBLIC "-//W3C//DTD SVG 1.1//EN" "http://www.w3.org/Graphics/SVG/1.1/DTD/svg11.dtd">
<svg version="1.1" xmlns="http://www.w3.org/2000/svg" xmlns:xlink="http://www.w3.org/1999/xlink" preserveAspectRatio="xMidYMid meet" viewBox="0 0 800 800" width="800" height="800"><defs><path d="M755 400C755 595.93 595.93 755 400 755C204.07 755 45 595.93 45 400C45 204.07 204.07 45 400 45C595.93 45 755 204.07 755 400Z" id="f7Vtkw83QP"></path><path d="M720 400C720 576.61 576.61 720 400 720C223.39 720 80 576.61 80 400C80 223.39 223.39 80 400 80C576.61 80 720 223.39 720 400Z" id="c1CsW3Cwr"></path><path d="M600 387.5C600 497.88 510.38 587.5 400 587.5C289.62 587.5 200 497.88 200 387.5C200 277.12 289.62 187.5 400 187.5C510.38 187.5 600 277.12 600 387.5Z" id="bVVf05MRk"></path><path d="M492.5 350C492.5 427.27 429.77 490 352.5 490C275.23 490 212.5 427.27 212.5 350C212.5 272.73 275.23 210 352.5 210C429.77 210 492.5 272.73 492.5 350Z" id="a2NrYJ3JJM"></path><path d="M450 400C450 427.6 427.6 450 400 450C372.4 450 350 427.6 350 400C350 372.4 372.4 350 400 350C427.6 350 450 372.4 450 400Z" id="b1vORv3bry"></path></defs><g><g><g><g><use xlink:href="#f7Vtkw83QP" opacity="1" fill-opacity="0" stroke="#010130" stroke-width="28" stroke-opacity="1"></use></g></g><g><g><use xlink:href="#c1CsW3Cwr" opacity="1" fill-opacity="0" stroke="#010130" stroke-width="8" stroke-opacity="1"></use></g></g><g><use xlink:href="#bVVf05MRk" opacity="1" fill="#c04400" fill-opacity="1"></use><g><use xlink:href="#bVVf05MRk" opacity="1" fill-opacity="0" stroke="#c04400" stroke-width="16" stroke-opacity="1"></use></g></g><g><use xlink:href="#a2NrYJ3JJM" opacity="1" fill="#ffffff" fill-opacity="1"></use><g><use xlink:href="#a2NrYJ3JJM" opacity="1" fill-opacity="0" stroke="#c04400" stroke-width="16" stroke-opacity="1"></use></g></g><g><use xlink:href="#b1vORv3bry" opacity="1" fill="#010130" fill-opacity="1"></use><g><use xlink:href="#b1vORv3bry" opacity="1" fill-opacity="0" stroke="#ffffff" stroke-width="6" stroke-opacity="1"></use></g></g></g></g></svg>